<?xml version="1.0" encoding="utf-8"?>
<!-- Generator: Adobe Illustrator 27.1.1, SVG Export Plug-In . SVG Version: 6.00 Build 0)  -->
<svg version="1.1" id="Layer_1" xmlns:svgjs="http://svgjs.com/svgjs"
	 xmlns="http://www.w3.org/2000/svg" xmlns:xlink="http://www.w3.org/1999/xlink" x="0px" y="0px" viewBox="0 0 10 10"
	 style="enable-background:new 0 0 10 10;" xml:space="preserve">
<style type="text/css">
	.st0{fill:#FFFFFF;}
</style>
<g>
	<path class="st0" d="M5,3.1c-0.1,0-0.3,0.4-0.3,1h0.7C5.3,3.5,5.1,3.1,5,3.1z M4.5,3.2C4.1,3.4,3.8,3.7,3.8,4.1h0.5
		C4.3,3.8,4.4,3.5,4.5,3.2L4.5,3.2z M6.2,4.1C6.2,3.7,5.9,3.4,5.5,3.2c0.1,0.3,0.2,0.6,0.2,0.9H6.2z M5,5.6c0.1,0,0.3-0.4,0.3-1H4.7
		C4.7,5.2,4.9,5.6,5,5.6L5,5.6z M4.5,5.4C4.4,5.2,4.3,4.8,4.3,4.5H3.8C3.9,4.9,4.1,5.3,4.5,5.4L4.5,5.4z"/>
	<path class="st0" d="M4.9,8C4.9,8,4.9,8,5,8S5.1,8,5.1,8l1.7-2.3c0.3-0.4,0.5-0.9,0.5-1.4C7.3,3.1,6.3,2,5,2s-2.3,1-2.3,2.3
		c0,0.5,0.2,1,0.5,1.4L4.9,8z M5,2.7c0.9,0,1.6,0.7,1.6,1.6S5.9,5.9,5,5.9S3.4,5.2,3.4,4.3S4.1,2.7,5,2.7z"/>
	<path class="st0" d="M6.2,4.5H5.7c0,0.3-0.1,0.7-0.2,0.9C5.9,5.3,6.1,4.9,6.2,4.5z"/>
</g>
</svg>
